PathFileType	4	(X/Y/Z)	./resultDataOpenSim/trcMotMarkerGrf/sub09/qtm-15-06.trc
DataRate	CameraRate	NumFrames	NumMarkers	Units	OrigDataRate	OrigDataStartFrame	OrigNumFrames
250.000000	250.000000	9	24	m	250.000000	126	502
Frame#	Time	L.Toe.Tip			R.Toe.Tip			L.Ankle.Lat			R.Ankle.Lat			L.Ankle.Med			R.Ankle.Med			L.Heel			R.Heel			L.Knee.Lat			R.Knee.Lat			L.Knee.Med			R.Knee.Med			L.Thigh.Upper			R.Thigh.Upper			L.ASIS			R.ASIS			V.Sacral			L.Acromium			R.Acromium			C7			L.Elbow			R.Elbow			L.Wrist.Lat			R.Wrist.Lat
		X1	Y1	Z1	X2	Y2	Z2	X3	Y3	Z3	X4	Y4	Z4	X5	Y5	Z5	X6	Y6	Z6	X7	Y7	Z7	X8	Y8	Z8	X9	Y9	Z9	X10	Y10	Z10	X11	Y11	Z11	X12	Y12	Z12	X13	Y13	Z13	X14	Y14	Z14	X15	Y15	Z15	X16	Y16	Z16	X17	Y17	Z17	X18	Y18	Z18	X19	Y19	Z19	X20	Y20	Z20	X21	Y21	Z21	X22	Y22	Z22	X23	Y23	Z23	X24	Y24	Z24

126	0.5	-0.23547106	0.088630659	0.00048221857	-0.70041082	0.039143701	0.10385712	-0.38666379	0.090988417	-0.041626611	-0.84775368	0.058470031	0.12621256	-0.37086775	0.11414794	0.05424186	-0.83186913	0.09358556	0.035308295	-0.44440476	0.037767641	0.0058901023	-0.91374565	0.036910107	0.071577281	-0.44842684	0.50543345	-0.077190163	-0.71760254	0.49538637	0.19300573	-0.45320717	0.50070032	0.048475171	-0.72616011	0.48782575	0.064063142	-0.62924487	0.88809316	-0.12213622	-0.67054323	0.89941148	0.2504146	-0.56207872	0.97599509	-0.058243197	-0.56039371	0.97920368	0.18038353	-0.73096609	1.0336432	0.051289174	-0.56599738	1.4271663	-0.11282365	-0.58185003	1.439756	0.21636479	-0.64178782	1.4837697	0.052147437	-0.72680439	1.0966812	-0.16106508	-0.70628745	1.0896356	0.32172722	-0.62704018	0.85663642	-0.20245817	-0.46687048	0.94330843	0.28424915
127	0.504	-0.21742865	0.092029635	0.0012696102	-0.70038557	0.039178042	0.10398708	-0.36872683	0.091247582	-0.041367785	-0.84769087	0.058560504	0.12618132	-0.35348762	0.11511859	0.05447608	-0.83168163	0.093679092	0.035227193	-0.42525401	0.036949329	0.0061453068	-0.91373285	0.037078514	0.071492213	-0.44203223	0.5037233	-0.077788399	-0.71530723	0.494681	0.192677	-0.446956	0.49858176	0.048130874	-0.72396994	0.48725006	0.064201408	-0.62308115	0.88631268	-0.12204313	-0.66515526	0.89825008	0.25049642	-0.55556837	0.97435981	-0.058067734	-0.55449183	0.97768434	0.18062487	-0.72445318	1.031989	0.051733574	-0.5598582	1.4255337	-0.11298082	-0.5761816	1.4383283	0.21628614	-0.63581837	1.4822669	0.051902596	-0.7213964	1.095556	-0.1615721	-0.70004472	1.0879791	0.32198785	-0.6228282	0.85512852	-0.20320979	-0.46004297	0.94285059	0.28373262
128	0.508	-0.19976177	0.095552537	0.0019705036	-0.70036417	0.039217173	0.10409262	-0.35116672	0.09173129	-0.041243942	-0.84764797	0.058634608	0.12615622	-0.3365133	0.11623475	0.05458037	-0.83151532	0.093760437	0.03517213	-0.40644827	0.036412998	0.006246382	-0.9137199	0.03727464	0.071422857	-0.43554107	0.50196219	-0.078274686	-0.71222344	0.49415156	0.19263489	-0.4404544	0.49636906	0.047958723	-0.7215418	0.486698	0.06443465	-0.61683563	0.884426	-0.12196189	-0.65980363	0.89707578	0.25056087	-0.54905011	0.9726482	-0.057914752	-0.54868994	0.9761053	0.1808416	-0.71753024	1.0301662	0.0530336	-0.55373303	1.4238179	-0.11314595	-0.57053247	1.4368245	0.21621412	-0.62982758	1.4807243	0.051665459	-0.7159063	1.0943279	-0.16202718	-0.69379972	1.0862449	0.32221716	-0.61859871	0.85353811	-0.20398727	-0.45325089	0.94227775	0.28322126
129	0.512	-0.18249985	0.099194861	0.0026063478	-0.7003585	0.039206216	0.10413163	-0.33398049	0.092429435	-0.041236623	-0.8476048	0.058710954	0.12614238	-0.31998297	0.11746804	0.05456223	-0.83136584	0.093832646	0.035146864	-0.38799626	0.03609204	0.006175878	-0.91370735	0.037498305	0.07137076	-0.42889701	0.50016134	-0.078604698	-0.70869302	0.49367874	0.19286036	-0.43374985	0.4941088	0.047912738	-0.7188683	0.48616802	0.064781023	-0.61050771	0.88243093	-0.12188421	-0.65447834	0.8958935	0.25060033	-0.54254161	0.97086313	-0.057786999	-0.54295545	0.97447053	0.18103003	-0.71024387	1.0282245	0.055024891	-0.54763558	1.4220376	-0.11333118	-0.56486751	1.4352441	0.2161346	-0.62382198	1.4791393	0.051435382	-0.71032718	1.0929937	-0.16240363	-0.68755312	1.0844386	0.32241002	-0.61434084	0.8518752	-0.20478987	-0.44649782	0.94160101	0.28272993
130	0.516	-0.16569368	0.10296077	0.0032076004	-0.70037028	0.039130653	0.10411506	-0.31717444	0.093326026	-0.041321793	-0.84755066	0.058793811	0.12614932	-0.30386571	0.11881064	0.054448766	-0.8312086	0.093923085	0.035154361	-0.36991959	0.035925047	0.0059177578	-0.91369557	0.037746001	0.071337601	-0.422134	0.49834447	-0.078802231	-0.70506552	0.49314958	0.19322966	-0.42701384	0.49184355	0.047888527	-0.71601596	0.48564122	0.065195291	-0.60410314	0.8803385	-0.12181286	-0.64916874	0.89470494	0.25061174	-0.53605528	0.96900828	-0.057683543	-0.53718976	0.97280213	0.18119099	-0.7030238	1.0262799	0.056824782	-0.54153714	1.4202049	-0.11353499	-0.55914968	1.4335938	0.21604432	-0.61780856	1.4774878	0.051202631	-0.70468751	1.0915694	-0.16277119	-0.68130692	1.0825709	0.32256683	-0.61003444	0.85014499	-0.20560541	-0.43977992	0.94082354	0.28226224
131	0.52	-0.14941096	0.10685569	0.0038094231	-0.70038747	0.039026925	0.10409403	-0.30077092	0.094398012	-0.041476777	-0.84748683	0.058881291	0.12617956	-0.28815499	0.12023842	0.054264969	-0.83103166	0.094042556	0.035188369	-0.35227564	0.035880158	0.0054689102	-0.91368373	0.038014851	0.071320074	-0.41535294	0.49654305	-0.078943234	-0.70138657	0.49255807	0.19366233	-0.42036227	0.48960011	0.047829275	-0.71310048	0.48508868	0.06557993	-0.5976311	0.87816422	-0.12175832	-0.64385148	0.89349239	0.25059392	-0.52958431	0.96708733	-0.057598322	-0.5313218	0.97112099	0.18132968	-0.69640011	1.0244176	0.057470125	-0.53537853	1.4183262	-0.11374945	-0.55336829	1.4318824	0.21594429	-0.61178807	1.4757535	0.050958315	-0.69903083	1.0900828	-0.16323567	-0.67505989	1.0806519	0.32269033	-0.60567009	0.84835282	-0.20641828	-0.43308894	0.93993776	0.2818068
132	0.524	-0.13370566	0.11086149	0.0044225094	-0.70039695	0.03893439	0.10410135	-0.28480068	0.095611377	-0.04168044	-0.84741764	0.05897264	0.12622507	-0.2729214	0.12167881	0.054041983	-0.83084168	0.094173917	0.035233816	-0.33514944	0.035948787	0.0048297158	-0.91366784	0.0383076	0.071309813	-0.40859983	0.4947843	-0.079090845	-0.69758478	0.49193615	0.19417053	-0.41379156	0.48738777	0.047755068	-0.71017893	0.48448568	0.065870497	-0.59111191	0.87591067	-0.12171194	-0.63848023	0.89221754	0.25053635	-0.52310022	0.96510096	-0.057528426	-0.52534737	0.96943427	0.18145351	-0.69063408	1.0226138	0.056606512	-0.52914267	1.4164017	-0.11396523	-0.5475453	1.4301183	0.21583784	-0.60575492	1.4739504	0.050700942	-0.6933689	1.0885431	-0.16381085	-0.66880624	1.0786841	0.32277963	-0.60124748	0.84650474	-0.20721978	-0.42642272	0.93893526	0.28135794
133	0.528	-0.11860541	0.11491792	0.0050282792	-0.70039479	0.038860558	0.10413085	-0.26930341	0.096913915	-0.041907775	-0.8473406	0.059071803	0.12627389	-0.25824561	0.12304694	0.053828504	-0.83064226	0.09430017	0.03527386	-0.31861147	0.036116738	0.0039895399	-0.91364543	0.038627882	0.071297668	-0.40182593	0.49308405	-0.079265828	-0.69360751	0.4913187	0.19483795	-0.40725726	0.48520681	0.047702594	-0.70720255	0.48382342	0.066075189	-0.58456687	0.87357081	-0.12165187	-0.63302317	0.89085793	0.25044149	-0.51657211	0.96305023	-0.057479794	-0.51929448	0.96773765	0.18156695	-0.68558664	1.0207096	0.054668914	-0.52288851	1.4144269	-0.11417729	-0.54170801	1.4283075	0.21572841	-0.59970678	1.4721142	0.050435337	-0.68767156	1.0869414	-0.16442779	-0.66253896	1.0766658	0.32283072	-0.59675257	0.84460402	-0.2080173	-0.41978244	0.93781798	0.28091786
134	0.532	-0.10412202	0.1189293	0.0055969474	-0.70038309	0.038793999	0.10416223	-0.25432514	0.098239242	-0.042128117	-0.84724672	0.059185993	0.12631506	-0.244142	0.12430781	0.053659328	-0.83042369	0.094423056	0.035297135	-0.30269513	0.036346084	0.0029740287	-0.91362843	0.038971433	0.071286092	-0.39495382	0.49144466	-0.079457193	-0.68939458	0.49073901	0.19570293	-0.40073296	0.48305524	0.047677202	-0.70408812	0.48310456	0.066230791	-0.57800217	0.87114926	-0.12157095	-0.627491	0.88942809	0.25034012	-0.51000397	0.96094195	-0.057455801	-0.51319389	0.96602093	0.18167098	-0.68076082	1.018548	0.05258008	-0.51667684	1.4124028	-0.11439145	-0.53585876	1.4264526	0.21561368	-0.59365331	1.4702782	0.050169158	-0.68188934	1.0852753	-0.16503352	-0.65625332	1.0745976	0.32284041	-0.59215075	0.84265028	-0.20882797	-0.41316998	0.93659696	0.28049133
